<svg xmlns="http://www.w3.org/2000/svg" width="24" height="24" viewBox="0 0 24 24" fill="none" stroke="currentColor" stroke-width="2" stroke-linecap="round" stroke-linejoin="round">
  <path d="M12 2C6.5 2 2 6.5 2 12s4.5 10 10 10 10-4.5 10-10S17.5 2 12 2z"/>
  <path d="M8 10c0-1.5 1.5-2.5 3.5-2.5s3.5 1 3.5 2.5-1.5 2.5-3.5 2.5-3.5-1-3.5-2.5z"/>
  <path d="M7 15c0-1 1-1.5 2.5-1.5s2.5.5 2.5 1.5-1 1.5-2.5 1.5-2.5-.5-2.5-1.5z"/>
  <path d="M15 15c0-1 1-1.5 2.5-1.5s2.5.5 2.5 1.5-1 1.5-2.5 1.5-2.5-.5-2.5-1.5z"/>
</svg>
